<svg width="258" height="119" viewBox="0 0 258 119" fill="none" xmlns="http://www.w3.org/2000/svg">
<path d="M105.366 115H50.7437C14.1891 115 4 101.868 4 88.2101V30.4281C4 20.9728 13.4538 5.73939 37.0882 5.73939C37.0882 5.73939 61.7731 4.85431 78.5798 4.16351C109.252 2.90281 136.528 9.24133 146.332 12.5682C156.836 7.84056 172.576 5.73939 205.155 5.73939C254 5.73939 254 58.105 254 58.105C254 76.3696 244.231 112.899 205.155 112.899C184.987 112.899 157.186 109.047 145.807 107.121C137.753 109.747 118.391 115 105.366 115Z" stroke="#3AD40A" stroke-width="7"/>
</svg>
